<?xml version="1.0" encoding="UTF-8"?>
<svg id="Layer_1" data-name="Layer 1" xmlns="http://www.w3.org/2000/svg" viewBox="0 0 808.5 108.3">
  <path d="M0,106.5V0h16.2v100.5l-8.55-8.85h60.45v14.85H0Z"/>
  <path d="M108.15,108.3c-8.3,0-14.93-1.9-19.88-5.7-4.95-3.8-7.43-9.15-7.43-16.05s2.07-12.27,6.23-16.12c4.15-3.85,10.58-6.62,19.27-8.32l27.45-5.25c0-6.2-1.45-10.82-4.35-13.88-2.9-3.05-7.2-4.58-12.9-4.58-5.1,0-9.1,1.12-12,3.38-2.9,2.25-4.9,5.58-6,9.97l-16.35-1.05c1.5-8,5.22-14.3,11.17-18.9,5.95-4.6,13.67-6.9,23.17-6.9,10.8,0,19.02,2.88,24.67,8.62,5.65,5.75,8.48,13.83,8.48,24.22v31.05c0,1.9.32,3.23.97,3.98.65.75,1.73,1.12,3.23,1.12h2.85v12.6c-.5.1-1.3.2-2.4.3-1.1.1-2.25.15-3.45.15-3.4,0-6.33-.55-8.78-1.65-2.45-1.1-4.28-2.92-5.47-5.47-1.2-2.55-1.8-5.97-1.8-10.28l1.65.75c-.8,3.5-2.53,6.6-5.17,9.3-2.65,2.7-6,4.83-10.05,6.38-4.05,1.55-8.43,2.33-13.12,2.33ZM110.7,95.7c4.8,0,8.9-.92,12.3-2.78,3.4-1.85,6.05-4.42,7.95-7.72,1.9-3.3,2.85-7.05,2.85-11.25v-5.1l-23.4,4.5c-4.8.9-8.18,2.32-10.12,4.27-1.95,1.95-2.93,4.42-2.93,7.42,0,3.4,1.17,6.03,3.53,7.88,2.35,1.85,5.62,2.78,9.83,2.78Z"/>
  <path d="M170.1,106.5V26.7h14.55l.6,21.3-1.95-1.05c.9-5.2,2.6-9.4,5.1-12.6,2.5-3.2,5.55-5.57,9.15-7.12,3.6-1.55,7.5-2.33,11.7-2.33,6,0,10.97,1.33,14.92,3.97,3.95,2.65,6.95,6.25,9,10.8,2.05,4.55,3.08,9.73,3.08,15.53v51.3h-15.9v-46.5c0-4.7-.5-8.65-1.5-11.85-1-3.2-2.65-5.65-4.95-7.35-2.3-1.7-5.3-2.55-9-2.55-5.6,0-10.15,1.85-13.65,5.55-3.5,3.7-5.25,9.1-5.25,16.2v46.5h-15.9Z"/>
  <path d="M285.3,108.3c-6.8,0-12.73-1.7-17.77-5.1-5.05-3.4-8.9-8.22-11.55-14.48-2.65-6.25-3.97-13.62-3.97-22.12s1.35-15.88,4.05-22.12c2.7-6.25,6.55-11.07,11.55-14.48,5-3.4,10.9-5.1,17.7-5.1,5.5,0,10.4,1.15,14.7,3.45,4.3,2.3,7.55,5.5,9.75,9.6V0h15.9v106.5h-14.85l-.45-12c-2.2,4.3-5.53,7.68-9.97,10.12-4.45,2.45-9.48,3.67-15.08,3.67ZM289.5,94.5c4.3,0,7.95-1.1,10.95-3.3,3-2.2,5.3-5.4,6.9-9.6,1.6-4.2,2.4-9.2,2.4-15s-.8-11.07-2.4-15.23c-1.6-4.15-3.9-7.3-6.9-9.45-3-2.15-6.65-3.22-10.95-3.22-6.4,0-11.5,2.47-15.3,7.42-3.8,4.95-5.7,11.78-5.7,20.48s1.9,15.4,5.7,20.4c3.8,5,8.9,7.5,15.3,7.5Z"/>
  <path d="M345.45,106.5V0h15.9v44.7l-1.95-.3c.9-4.5,2.55-8.17,4.95-11.03,2.4-2.85,5.35-4.97,8.85-6.38,3.5-1.4,7.35-2.1,11.55-2.1,5.8,0,10.7,1.27,14.7,3.83,4,2.55,7.02,6.13,9.08,10.72,2.05,4.6,3.08,9.85,3.08,15.75v51.3h-15.9v-47.1c0-7.2-1.23-12.53-3.67-15.98-2.45-3.45-6.28-5.17-11.47-5.17-5.8,0-10.45,1.83-13.95,5.48-3.5,3.65-5.25,8.98-5.25,15.97v46.8h-15.9Z"/>
  <path d="M454.8,108.3c-8.3,0-14.93-1.9-19.88-5.7-4.95-3.8-7.43-9.15-7.43-16.05s2.07-12.27,6.23-16.12c4.15-3.85,10.58-6.62,19.27-8.32l27.45-5.25c0-6.2-1.45-10.82-4.35-13.88-2.9-3.05-7.2-4.58-12.9-4.58-5.1,0-9.1,1.12-12,3.38-2.9,2.25-4.9,5.58-6,9.97l-16.35-1.05c1.5-8,5.22-14.3,11.17-18.9,5.95-4.6,13.67-6.9,23.17-6.9,10.8,0,19.02,2.88,24.67,8.62,5.65,5.75,8.48,13.83,8.48,24.22v31.05c0,1.9.32,3.23.97,3.98.65.75,1.73,1.12,3.23,1.12h2.85v12.6c-.5.1-1.3.2-2.4.3-1.1.1-2.25.15-3.45.15-3.4,0-6.33-.55-8.78-1.65-2.45-1.1-4.28-2.92-5.47-5.47-1.2-2.55-1.8-5.97-1.8-10.28l1.65.75c-.8,3.5-2.53,6.6-5.17,9.3-2.65,2.7-6,4.83-10.05,6.38-4.05,1.55-8.43,2.33-13.12,2.33ZM457.35,95.7c4.8,0,8.9-.92,12.3-2.78,3.4-1.85,6.05-4.42,7.95-7.72,1.9-3.3,2.85-7.05,2.85-11.25v-5.1l-23.4,4.5c-4.8.9-8.18,2.32-10.12,4.27-1.95,1.95-2.93,4.42-2.93,7.42,0,3.4,1.17,6.03,3.53,7.88,2.35,1.85,5.62,2.78,9.83,2.78Z"/>
  <path d="M549,108.3c-7.6,0-14.25-1.7-19.95-5.1-5.7-3.4-10.1-8.25-13.2-14.55-3.1-6.3-4.65-13.65-4.65-22.05s1.55-15.72,4.65-21.98c3.1-6.25,7.5-11.1,13.2-14.55,5.7-3.45,12.35-5.17,19.95-5.17,6.5,0,12.27,1.12,17.33,3.38,5.05,2.25,9.15,5.53,12.3,9.83,3.15,4.3,5.18,9.55,6.08,15.75l-16.65.9c-.8-5.2-2.9-9.17-6.3-11.92-3.4-2.75-7.65-4.12-12.75-4.12-6.7,0-11.92,2.47-15.67,7.42s-5.62,11.78-5.62,20.48,1.88,15.52,5.62,20.47,8.97,7.42,15.67,7.42c5.1,0,9.35-1.42,12.75-4.28,3.4-2.85,5.5-7.17,6.3-12.97l16.65.9c-.9,6.1-2.92,11.4-6.08,15.9-3.15,4.5-7.25,8-12.3,10.5-5.05,2.5-10.83,3.75-17.33,3.75Z"/>
  <path d="M599.1,106.5V0h15.9v66.15l35.85-39.45h20.1l-31.2,33.6,32.4,46.2h-18.3l-24.75-36.3-14.1,15v21.3h-15.9Z"/>
  <path d="M714.75,108.3c-7.8,0-14.53-1.7-20.17-5.1-5.65-3.4-10-8.25-13.05-14.55-3.05-6.3-4.58-13.65-4.58-22.05s1.52-15.72,4.58-21.98c3.05-6.25,7.37-11.1,12.97-14.55,5.6-3.45,12.2-5.17,19.8-5.17,7.2,0,13.55,1.68,19.05,5.02,5.5,3.35,9.77,8.18,12.83,14.48,3.05,6.3,4.57,13.9,4.57,22.8v4.05h-57.3c.4,7.8,2.48,13.65,6.23,17.55,3.75,3.9,8.82,5.85,15.22,5.85,4.7,0,8.6-1.1,11.7-3.3,3.1-2.2,5.25-5.15,6.45-8.85l16.5,1.05c-2.1,7.4-6.23,13.38-12.38,17.92-6.15,4.55-13.63,6.83-22.43,6.83ZM693.45,59.25h40.5c-.5-7.1-2.53-12.35-6.08-15.75-3.55-3.4-8.08-5.1-13.57-5.1s-10.38,1.78-14.03,5.33c-3.65,3.55-5.92,8.73-6.83,15.52Z"/>
  <path d="M766.8,106.5V26.7h14.55l.6,21.15-1.35-.45c1.1-7.2,3.32-12.45,6.67-15.75,3.35-3.3,7.88-4.95,13.58-4.95h7.65v14.25h-7.65c-4,0-7.35.65-10.05,1.95-2.7,1.3-4.72,3.3-6.08,6-1.35,2.7-2.02,6.2-2.02,10.5v47.1h-15.9Z"/>
</svg>